<svg xmlns="http://www.w3.org/2000/svg" version="1.1" xmlns:xlink="http://www.w3.org/1999/xlink" xmlns:svgjs="http://svgjs.com/svgjs" width="1000" height="1000"><rect width="1000" height="1000" rx="200" ry="200" fill="#ffffff"></rect><g transform="matrix(0.5,0,0,0.5,100.6452968120575,145.94949340820312)"><svg xmlns="http://www.w3.org/2000/svg" version="1.1" xmlns:xlink="http://www.w3.org/1999/xlink" xmlns:svgjs="http://svgjs.com/svgjs" width="1600" height="1419"><svg xmlns="http://www.w3.org/2000/svg" width="1600" height="1419" viewBox="0 0 1600 1419" version="1.1"><path d="M 1283.675 485.594 C 1284.137 486.801, 1216.272 487, 805.107 487 C 475.513 487, 326 486.677, 326 485.965 C 326 485.256, 325.398 485.252, 324.092 485.951 C 322.890 486.594, 308.196 486.968, 284.342 486.962 C 263.529 486.957, 192.198 486.963, 125.829 486.976 L 5.159 487 4.649 489.750 C 4.369 491.262, 3.996 524.899, 3.820 564.498 C 3.566 621.550, 3.759 636.522, 4.750 636.623 C 5.438 636.693, 18.375 636.806, 33.500 636.875 L 61 637 61 674.480 L 61 711.960 82.250 712.230 L 103.500 712.500 103.209 747.250 L 102.917 782 117.209 782.235 C 125.069 782.364, 134.763 782.477, 138.752 782.485 L 146.003 782.500 146.002 817.750 L 146 853 163.250 853.106 C 172.738 853.165, 181.175 853.313, 182 853.435 C 182.825 853.558, 187.662 853.735, 192.750 853.829 L 202 854 202 893.845 L 202 933.690 226.250 934.381 C 239.587 934.761, 263.325 935.046, 279 935.013 C 294.675 934.981, 376.939 935.688, 461.810 936.584 C 546.680 937.481, 616.338 937.995, 616.606 937.727 C 616.874 937.460, 617.409 921.183, 617.796 901.558 L 618.500 865.875 638.500 865.688 L 658.500 865.500 659 825.500 L 659.500 785.500 679.737 785.229 L 699.974 784.959 700.237 750.729 L 700.500 716.500 730.234 716.873 C 754.786 717.181, 760.055 717.007, 760.464 715.873 C 760.737 715.118, 761.082 694.925, 761.230 671 L 761.500 627.500 805 627.500 L 848.500 627.500 848.760 672.735 L 849.020 717.970 878.760 718.235 L 908.500 718.500 908.763 752.729 L 909.026 786.958 928.763 787.229 L 948.500 787.500 948.761 827.729 L 949.023 867.958 968.761 868.229 L 988.500 868.500 988.762 904.744 L 989.025 940.989 1164.262 941.244 C 1260.643 941.385, 1353.112 941.381, 1369.750 941.235 L 1400 940.971 1400 901.112 L 1400 861.254 1428 860.518 L 1456 859.782 1456 824.891 L 1456 790 1477.500 790 L 1499 790 1499 755 L 1499 720 1520.500 720 L 1542 720 1542 683 L 1542 646 1569.478 646 L 1596.955 646 1596.988 566.500 L 1597.021 487 1481.261 486.951 C 1417.592 486.923, 1348.175 486.932, 1327 486.970 C 1295.504 487.026, 1288.012 486.779, 1285.818 485.614 C 1283.529 484.398, 1283.214 484.395, 1283.675 485.594 M 1598.476 566.500 C 1598.476 609.950, 1598.599 627.579, 1598.750 605.676 C 1598.900 583.772, 1598.900 548.222, 1598.750 526.676 C 1598.599 505.129, 1598.476 523.050, 1598.476 566.500 M 62.518 554.250 C 62.154 558.788, 62.001 566.100, 62.178 570.500 L 62.500 578.500 91 579 L 119.500 579.500 119.623 616.500 L 119.747 653.500 141.511 653.770 L 163.276 654.040 162.545 688.865 L 161.815 723.689 170.157 724.339 C 174.746 724.696, 184.701 724.991, 192.280 724.994 L 206.060 725 205.371 760 L 204.682 795 230.591 795.171 C 244.841 795.265, 257.175 795.442, 258 795.565 C 258.825 795.687, 260.136 795.835, 260.913 795.894 C 262.116 795.984, 262.227 801.906, 261.664 835.851 L 261.002 875.702 319.751 876.385 C 465.340 878.076, 558.347 878.987, 558.609 878.724 C 558.766 878.567, 559.256 862.253, 559.697 842.469 L 560.500 806.500 579.860 806.881 C 595.552 807.191, 599.385 807.001, 600.094 805.881 C 600.576 805.122, 600.976 786.837, 600.985 765.250 L 601 726 621.500 726 L 642 726 642 702.156 C 642 689.041, 642.297 673.459, 642.660 667.528 L 643.320 656.745 672.910 657.123 L 702.500 657.500 703.116 622 C 703.454 602.475, 703.792 582.272, 703.866 577.104 L 704 567.708 774.250 568.361 C 812.888 568.721, 858.783 569.301, 876.240 569.652 L 907.980 570.289 908.240 614.894 L 908.500 659.500 937.737 659.765 L 966.974 660.030 967.237 694.265 L 967.500 728.500 987.239 728.771 L 1006.977 729.042 1007.239 769.271 L 1007.500 809.500 1027.250 809.771 L 1047 810.042 1047 846.021 L 1047 882 1194 882 L 1341 882 1341 842 L 1341 802 1369 802 L 1397 802 1397 767 L 1397 732 1418.500 732 L 1440 732 1440 697 L 1440 662 1461.488 662 L 1482.976 662 1483.238 624.750 L 1483.500 587.500 1511.709 587.234 L 1539.918 586.969 1540.209 567.474 C 1540.369 556.751, 1540.350 547.533, 1540.167 546.989 C 1539.947 546.338, 1287.515 546, 801.506 546 L 63.180 546 62.518 554.250 M 945.397 1032 C 945.397 1039.975, 945.553 1043.237, 945.743 1039.250 C 945.932 1035.263, 945.932 1028.737, 945.743 1024.750 C 945.553 1020.763, 945.397 1024.025, 945.397 1032 M 799.292 1338.742 C 803.027 1338.935, 808.877 1338.934, 812.292 1338.739 C 815.706 1338.545, 812.650 1338.387, 805.500 1338.389 C 798.350 1338.390, 795.556 1338.550, 799.292 1338.742" stroke="none" fill="#f07c07" fill-rule="evenodd"></path><path d="M 705.601 20.592 C 675.957 24.646, 651.547 28.120, 651.356 28.310 C 650.946 28.721, 663.686 124.019, 664.224 124.557 C 664.427 124.760, 689.547 121.571, 720.047 117.469 C 750.546 113.368, 775.521 110.010, 775.547 110.006 C 775.573 110.003, 774.891 104.713, 774.032 98.250 L 772.469 86.500 768.985 86.806 C 767.068 86.974, 752.067 88.916, 735.650 91.122 C 719.232 93.328, 705.592 94.925, 705.338 94.672 C 704.404 93.738, 703.777 83.256, 704.624 82.735 C 705.106 82.439, 719.675 80.334, 737 78.059 C 754.325 75.783, 768.969 73.764, 769.543 73.572 C 770.250 73.334, 770.114 69.494, 769.118 61.611 C 767.773 50.973, 767.476 50.003, 765.575 50.041 C 764.434 50.063, 749.408 51.997, 732.184 54.339 C 714.961 56.681, 700.684 58.298, 700.459 57.934 C 700.234 57.569, 699.757 54.785, 699.400 51.746 L 698.751 46.222 704.125 45.528 C 707.081 45.146, 715.575 44, 723 42.981 C 730.425 41.962, 742.683 40.341, 750.239 39.380 C 757.796 38.418, 764.357 37.377, 764.820 37.066 C 765.283 36.755, 764.984 31.213, 764.156 24.750 C 762.940 15.259, 762.348 13.021, 761.075 13.110 C 760.209 13.170, 735.246 16.537, 705.601 20.592 M 896 20.775 C 896 21.202, 894.898 27.839, 893.550 35.525 C 886.957 73.138, 879.929 115.262, 880.201 115.535 C 880.838 116.171, 923.163 123.170, 923.619 122.715 C 923.882 122.451, 925.224 115.320, 926.601 106.868 C 929.960 86.246, 929.529 87.072, 936.367 88.144 C 946.511 89.735, 950.982 92.407, 951.024 96.905 C 951.038 98.332, 950.049 105.449, 948.828 112.720 C 947.606 119.991, 946.934 126.267, 947.333 126.666 C 947.944 127.278, 990.181 135.050, 990.664 134.639 C 990.754 134.563, 992.019 127.412, 993.475 118.749 C 996.511 100.687, 996.253 96.030, 991.885 90 C 990.298 87.810, 989 85.600, 989 85.090 C 989 84.580, 990.630 83.156, 992.621 81.925 C 998.111 78.532, 1002 71.726, 1002 65.510 C 1002 52.371, 985.773 38.164, 963.661 31.943 C 956.858 30.029, 901.533 20, 897.778 20 C 896.800 20, 896 20.349, 896 20.775 M 577 48.426 C 562.410 51.664, 547.719 58.392, 537.559 66.489 C 531.959 70.951, 529.933 72, 526.910 72 C 515.927 72, 496.294 78.169, 483.566 85.620 C 473.927 91.262, 462.215 102.633, 458.455 110 C 453.470 119.768, 453.774 121.219, 468.406 157.500 C 475.504 175.100, 481.473 189.693, 481.669 189.930 C 482.063 190.404, 521.021 175.140, 522.296 174.012 C 522.734 173.624, 517.437 159.119, 510.524 141.777 C 497.146 108.217, 497.079 107.924, 501.791 103.681 C 504.226 101.487, 511.627 99.261, 514.775 99.774 C 516.026 99.978, 517.743 101.204, 518.591 102.499 C 519.439 103.793, 525.468 118.201, 531.990 134.516 C 538.511 150.831, 544.049 164.382, 544.296 164.630 C 545.161 165.494, 586.062 148.603, 585.642 147.555 C 560.549 84.844, 560.610 85.010, 561.581 82.251 C 562.661 79.178, 568.556 75.516, 574.048 74.506 C 576.710 74.016, 578.146 74.309, 579.794 75.677 C 581.191 76.836, 586.500 88.716, 594.367 108.288 C 601.173 125.221, 606.934 139.267, 607.168 139.502 C 607.403 139.736, 616.799 136.173, 628.047 131.583 C 641.993 125.893, 648.403 122.803, 648.194 121.869 C 647.709 119.699, 627.365 68.762, 624.166 61.706 C 620.820 54.326, 617.538 51.580, 608.819 48.867 C 601.811 46.685, 585.838 46.464, 577 48.426 M 1018.643 94.832 C 1008.930 119.400, 1000.992 139.950, 1001.002 140.500 C 1001.013 141.050, 1010.129 145.053, 1021.261 149.396 C 1032.392 153.738, 1055.554 162.851, 1072.731 169.646 C 1089.908 176.440, 1104.308 181.999, 1104.731 181.998 C 1105.880 181.996, 1113.879 160.624, 1113.064 159.731 C 1112.678 159.309, 1099.119 153.771, 1082.931 147.425 C 1066.744 141.080, 1053.113 135.504, 1052.640 135.034 C 1051.483 133.885, 1054.832 124, 1056.379 124 C 1057.048 124, 1071.274 129.398, 1087.991 135.997 C 1107.916 143.861, 1118.619 147.617, 1119.061 146.901 C 1120.407 144.723, 1127.253 125.920, 1126.848 125.514 C 1126.619 125.285, 1112.722 119.689, 1095.966 113.077 C 1062.522 99.881, 1064.268 101.080, 1067.438 93.493 C 1068.241 91.572, 1069.530 90, 1070.303 90 C 1071.075 90, 1084.870 95.175, 1100.957 101.500 C 1117.044 107.825, 1130.744 113, 1131.402 113 C 1132.404 113, 1141.384 92.051, 1140.682 91.349 C 1140.508 91.175, 1051.348 55.981, 1038.401 50.976 C 1036.426 50.212, 1035.259 52.803, 1018.643 94.832 M 935.378 56.253 C 934.934 59.139, 934.554 61.946, 934.535 62.492 C 934.485 63.920, 946.807 65.982, 951.318 65.300 C 953.719 64.937, 955.676 63.899, 956.590 62.502 C 959.928 57.408, 954.251 53.599, 940.343 51.603 L 936.187 51.006 935.378 56.253 M 1167 124.936 C 1162.385 125.868, 1158.089 128.184, 1154.709 131.564 C 1153.196 133.076, 1144.479 146.056, 1135.337 160.407 C 1126.195 174.758, 1118.120 187.411, 1117.391 188.524 C 1116.141 190.434, 1117.097 191.207, 1134.419 202.274 C 1144.514 208.723, 1153.162 214, 1153.638 214 C 1154.114 214, 1162.560 201.379, 1172.405 185.953 C 1182.251 170.527, 1191.108 157.477, 1192.088 156.953 C 1195.135 155.322, 1198.151 155.888, 1203.003 159.002 C 1208.078 162.259, 1210.438 166.045, 1209.410 169.282 C 1209.052 170.411, 1201.094 183.289, 1191.725 197.900 C 1182.357 212.510, 1174.526 225.147, 1174.323 225.982 C 1174.071 227.026, 1179.775 231.196, 1192.571 239.323 C 1202.810 245.826, 1211.302 251.001, 1211.443 250.823 C 1213.973 247.629, 1247.617 193.767, 1248.697 191.184 C 1250.906 185.896, 1250.014 177.763, 1246.371 169.982 C 1233.953 143.464, 1192.309 119.829, 1167 124.936 M 771.884 142.983 C 636.740 150.704, 511.846 199.282, 407 284.905 C 344.640 335.832, 291.869 399.785, 252.139 472.581 C 248.213 479.776, 245 485.943, 245 486.285 C 245 486.628, 262.573 486.922, 284.050 486.940 L 323.100 486.972 325.123 484.736 C 326.235 483.506, 333.082 473.500, 340.339 462.500 C 372.694 413.455, 412.268 370.494, 460.500 332.054 C 541.280 267.675, 636.368 228.715, 744 215.897 C 766.453 213.224, 819.141 212.179, 843.169 213.931 C 989.642 224.610, 1118.527 287.395, 1218.709 396.870 C 1238.637 418.647, 1261.395 448.510, 1277.178 473.593 C 1281.803 480.943, 1285.382 485.567, 1286.894 486.145 C 1288.210 486.648, 1306.359 487.017, 1327.225 486.964 C 1362.350 486.875, 1365.116 486.743, 1364.528 485.184 C 1363.247 481.791, 1347.012 453.149, 1339.484 441 C 1302.510 381.333, 1253.742 325.833, 1201 283.399 C 1100.370 202.436, 985.209 155.677, 859 144.535 C 837.753 142.659, 791.858 141.841, 771.884 142.983 M 1277.595 198.492 L 1269.799 207.055 1278.900 215.621 C 1283.905 220.333, 1288 224.586, 1288 225.072 C 1288 225.919, 1280.252 234.201, 1251.358 264.238 L 1238.143 277.975 1249.821 289.320 C 1256.245 295.559, 1263.578 302.542, 1266.117 304.837 L 1270.734 309.009 1295.496 283.005 C 1309.114 268.702, 1320.716 257, 1321.276 257 C 1321.837 257, 1326.347 260.905, 1331.299 265.679 L 1340.301 274.358 1348.784 265.584 L 1357.266 256.811 1354.883 254.567 C 1350.125 250.086, 1327.047 228.071, 1307.640 209.500 C 1296.720 199.050, 1287.246 190.371, 1286.587 190.214 C 1285.929 190.057, 1281.882 193.782, 1277.595 198.492 M 325.418 197.435 C 307.905 201.383, 286.216 217.775, 274.474 235.939 C 264.846 250.830, 261.483 266.008, 265.776 275.184 C 267.779 279.464, 292.588 305.964, 297.343 308.903 C 321.023 323.538, 371.870 287.537, 379.666 250.617 C 381.953 239.785, 380.522 234.747, 372.728 226.197 C 359.507 211.694, 348.331 200.765, 344.895 198.980 C 339.908 196.389, 332.621 195.811, 325.418 197.435 M 308.780 234.052 C 304.480 236.323, 300 242.366, 300 245.896 C 300 247.663, 303.487 251.894, 312.750 261.369 C 319.762 268.541, 326.175 274.978, 327 275.673 C 329.426 277.716, 332.423 277.201, 336.879 273.973 C 342.044 270.231, 344.776 265.033, 343.440 261.490 C 342.185 258.163, 316.083 231.988, 314.076 232.044 C 313.209 232.069, 310.826 232.972, 308.780 234.052 M 234.585 295.069 C 212.184 300.611, 186.398 329.830, 179.929 357 C 178.351 363.628, 178.375 375.368, 179.976 379.496 C 182.327 385.559, 186.450 389.117, 213.604 408.511 L 241.328 428.313 243.188 426.016 C 248.897 418.965, 267.093 392.788, 266.821 392.017 C 266.645 391.517, 254.586 382.530, 240.025 372.048 C 225.180 361.361, 212.954 351.851, 212.193 350.399 C 211.069 348.254, 211.060 347.270, 212.140 344.662 C 214.323 339.391, 219.848 334, 223.066 334 C 225.148 334, 232.954 339.053, 252.484 353.044 C 267.105 363.519, 279.615 372.289, 280.284 372.534 C 281.384 372.937, 307.747 337.304, 306.864 336.607 C 302.212 332.937, 252.038 297.554, 249.967 296.483 C 246.094 294.480, 239.437 293.868, 234.585 295.069 M 1362 295.025 C 1360.075 295.356, 1356.700 296.777, 1354.500 298.181 C 1348.638 301.924, 1305.974 331.666, 1302.727 334.273 L 1299.954 336.500 1312.063 354 C 1318.723 363.625, 1324.484 371.828, 1324.866 372.230 C 1325.247 372.631, 1329.786 370.043, 1334.953 366.480 C 1340.120 362.916, 1344.697 360, 1345.125 360 C 1346.293 360, 1358.129 376.982, 1357.580 377.870 C 1357.319 378.293, 1353.020 381.517, 1348.028 385.035 C 1343.036 388.553, 1339.154 391.958, 1339.401 392.603 C 1340.281 394.897, 1363.514 427.973, 1364.254 427.986 C 1365.224 428.004, 1413.130 394.891, 1418.774 390.302 C 1427.548 383.168, 1429.960 372.199, 1426.109 356.945 C 1419.776 331.863, 1401.014 307.763, 1380.512 298.377 C 1374.188 295.481, 1366.954 294.172, 1362 295.025 M 1374.295 338.825 C 1364.895 345.907, 1365.105 344.786, 1371.478 353.882 C 1374.596 358.332, 1377.600 362.253, 1378.154 362.595 C 1379.097 363.178, 1392.633 354.681, 1394.235 352.500 C 1395.993 350.107, 1394.937 344.213, 1392.031 340.202 C 1386.457 332.507, 1383.033 332.241, 1374.295 338.825 M 62.518 554.250 C 62.154 558.788, 62.001 566.100, 62.178 570.500 L 62.500 578.500 91 579 L 119.500 579.500 119.623 616.500 L 119.747 653.500 141.511 653.770 L 163.276 654.040 162.545 688.865 L 161.815 723.689 170.157 724.339 C 174.746 724.696, 184.701 724.991, 192.280 724.994 L 206.060 725 205.371 760 L 204.682 795 230.591 795.171 C 244.841 795.265, 257.175 795.442, 258 795.565 C 258.825 795.687, 260.136 795.835, 260.913 795.894 C 262.116 795.984, 262.227 801.906, 261.664 835.851 L 261.002 875.702 319.751 876.385 C 465.340 878.076, 558.347 878.987, 558.609 878.724 C 558.766 878.567, 559.256 862.253, 559.697 842.469 L 560.500 806.500 579.860 806.881 C 595.552 807.191, 599.385 807.001, 600.094 805.881 C 600.576 805.122, 600.976 786.837, 600.985 765.250 L 601 726 621.500 726 L 642 726 642 702.156 C 642 689.041, 642.297 673.459, 642.660 667.528 L 643.320 656.745 672.910 657.123 L 702.500 657.500 703.116 622 C 703.454 602.475, 703.792 582.272, 703.866 577.104 L 704 567.708 774.250 568.361 C 812.888 568.721, 858.783 569.301, 876.240 569.652 L 907.980 570.289 908.240 614.894 L 908.500 659.500 937.737 659.765 L 966.974 660.030 967.237 694.265 L 967.500 728.500 987.239 728.771 L 1006.977 729.042 1007.239 769.271 L 1007.500 809.500 1027.250 809.771 L 1047 810.042 1047 846.021 L 1047 882 1194 882 L 1341 882 1341 842 L 1341 802 1369 802 L 1397 802 1397 767 L 1397 732 1418.500 732 L 1440 732 1440 697 L 1440 662 1461.488 662 L 1482.976 662 1483.238 624.750 L 1483.500 587.500 1511.709 587.234 L 1539.918 586.969 1540.209 567.474 C 1540.369 556.751, 1540.350 547.533, 1540.167 546.989 C 1539.947 546.338, 1287.515 546, 801.506 546 L 63.180 546 62.518 554.250 M 180.640 853.773 C 179.814 855.110, 183.445 879.333, 187.543 899.814 C 223.016 1077.127, 331.901 1230.581, 487.204 1322.133 C 505.837 1333.117, 542.343 1351.456, 562 1359.707 C 686.573 1411.997, 824.366 1422.744, 955.500 1390.399 C 1000.777 1379.231, 1041.254 1364.212, 1085 1342.346 C 1168.442 1300.639, 1237.501 1244.699, 1296.433 1171.078 C 1363.660 1087.094, 1410.153 982.092, 1426.423 877.500 C 1427.278 872, 1428.228 866.038, 1428.534 864.250 L 1429.091 861 1414.545 861 L 1400 861 1400 900.985 L 1400 940.971 1369.886 941.235 L 1339.772 941.500 1333.551 959.500 C 1324.733 985.018, 1318.311 1000.451, 1306.501 1024.500 C 1294.577 1048.781, 1285.605 1064.638, 1272.268 1085 C 1195.694 1201.914, 1075.710 1287.912, 942.500 1321.361 C 894.929 1333.306, 855.733 1338.183, 806.500 1338.281 C 775.313 1338.343, 757.947 1337.250, 729.292 1333.422 C 633.094 1320.572, 539.095 1280.830, 462.500 1220.626 C 374.135 1151.169, 309.869 1060.052, 274.446 954 L 268.267 935.500 247.883 934.888 C 236.672 934.551, 221.762 934.214, 214.750 934.138 L 202 934 202 894 L 202 854 193.750 853.986 C 189.213 853.979, 184.538 853.715, 183.363 853.399 C 182.187 853.084, 180.962 853.252, 180.640 853.773 M 683 993.928 C 677.507 995.060, 671.472 998.605, 668.125 1002.665 C 662.932 1008.965, 662 1013.427, 662 1032 C 662 1052.029, 663.055 1056.160, 669.917 1062.993 C 678.511 1071.550, 669.345 1071, 803.433 1071 C 934.302 1071, 927.759 1071.322, 935.733 1064.497 C 938.013 1062.545, 941.065 1058.522, 942.517 1055.556 C 945.133 1050.207, 945.152 1050.004, 944.827 1030.831 C 944.506 1011.853, 944.450 1011.415, 941.770 1006.855 C 938.691 1001.619, 934.477 997.737, 929.129 995.213 C 925.771 993.628, 916.562 993.489, 806 993.353 C 740.275 993.272, 684.925 993.531, 683 993.928" stroke="none" fill="#252524" fill-rule="evenodd"></path></svg></svg></g></svg>